<svg fill="#fff" xmlns="http://www.w3.org/2000/svg" width="800" height="800" viewBox="610 796 200 200"><path d="M673.027 832.005c6.679 1.875 12.822 5.479 17.765 10.422a40.803 40.803 0 0110.423 17.766 6.174 6.174 0 007.611 4.272 6.17 6.17 0 004.271-7.61 53.163 53.163 0 00-13.578-23.155c-6.436-6.435-14.442-11.13-23.154-13.577a6.17 6.17 0 10-3.338 11.882zM678.405 808.142c11.172 2.926 21.42 8.816 29.638 17.035 8.217 8.217 14.109 18.466 17.034 29.64a6.176 6.176 0 005.966 4.609 6.171 6.171 0 005.974-7.736c-3.48-13.291-10.482-25.476-20.246-35.24-9.765-9.766-21.95-16.767-35.238-20.247a6.172 6.172 0 00-3.128 11.939zM784.672 963.125l-22.986-22.986a10.388 10.388 0 00-14.749.052c-.894.904-1.925 1.946-3.186 3.205-15.472 15.474-33.934 4.677-48.734-10.124l-.001.001c-14.802-14.8-25.599-33.262-10.125-48.737a659.635 659.635 0 013.206-3.184 10.39 10.39 0 00.053-14.748l-22.988-22.987c-4.057-4.057-10.635-4.057-14.692 0l-2.307 2.307c-38.376 38.376 1.648 81.229 27.311 106.893l.002-.001c25.663 25.662 68.514 65.686 106.891 27.31l2.307-2.307c4.054-4.058 4.055-10.636-.002-14.694z"/></svg>