<svg fill="#fff" height="800" width="800" version="1.2" baseProfile="tiny" xmlns="http://www.w3.org/2000/svg" viewBox="0 0 256 256"><path d="M77.3 43.8C61.9 38 29.6 33.2 11.8 33.5l1.1-15c20.7-.2 57.6 5.5 74.5 13.3l-10.1 12zm117.6-13.7l49.7 187.3-138.8 36.9L56 68.3 77.6 44c2.1.8 4.2 1.6 6.3 2.5 13.2 5.5 23.7 12.2 30.6 19.3-3.8 5.5-5.3 12.5-3.5 19.5 3.3 12.5 16.2 20 28.7 16.6 12.5-3.3 20-16.2 16.6-28.7-3.3-12.5-16.2-20-28.7-16.6-.3.1-.6.2-.8.2-9.6-10.6-24-19.2-39.1-25.2l25.5-28.9 81.7 27.4zm-3.7 149.4c-4.4-16.5-23.2-16.5-31.4-16.6-15.4-.2-18-5-18.6-7.8-1.2-6.6 5.5-10.1 12.4-10.4 5.5-.2 11.6 1.4 15.2 2.9l6.5-13.5c-5.5-1.9-12.5-4.5-21.6-3.8l-2.9-10.7-13.8 3.7 2.7 10.3c-13 4.6-19.7 15.3-16.6 26.8 3 11.2 12.5 14.3 21.7 16.1 7.6 1.4 27.4-.2 28.6 8.6.7 4.8-3.4 9.5-11.8 10.7-7.3 1-16.5-2.9-16.5-2.9l-7.6 13.1c7.6 3.4 15.1 4.8 22.7 4.3l2.7 10.1 13.8-3.7-2.5-9.6c12.7-5.1 20-16.6 17-27.6z"/></svg>